# xmcd
#
# Track frame offsets:
#	182
#	17602
#	33470
#	47397
#	61540
#	75582
#	89330
#	100732
#	120525
#	131520
#	146052
#	161500
#	182110
#	198295
#	211437
#	223852
#	238717
#	253182
#
# Disc length: 3563 seconds
#
# Revision: 2
# Processed by: cddbd v1.5.2PL0 Copyright (c) Steve Scherf et al.
# Submitted via: audiograbber 1.83.01
#
DISCID=f40de912
DTITLE=Kris Kristofferson - Country Store Collection
DYEAR=1988
DGENRE=Country
TTITLE0=Loving Her Was Easier (Than Anything I'll ever Do Again)
TTITLE1=Why Me
TTITLE2=Kiss The World Goodbye
TTITLE3=Jodie and The Kid
TTITLE4=Lover Please
TTITLE5=Out Of Mind, Out Of Sight
TTITLE6=Jesus Was A Capricorn
TTITLE7=Me and Bobby McGee
TTITLE8=Help Me Make It Through The Night
TTITLE9=I'd Rather Be Sorry
TTITLE10=For The Good Times
TTITLE11=Sunday Morning Coming Down
TTITLE12=Who's To Bless And Who's To Blame
TTITLE13=Here Comes That Rainbow Again
TTITLE14=Breakdown (A Long Way From Home)
TTITLE15=The Taker
TTITLE16=The Pilgrim - Chapter 33
TTITLE17=Nobody Wins
EXTD=
EXTT0=
EXTT1=
EXTT2=
EXTT3=
EXTT4=
EXTT5=
EXTT6=
EXTT7=
EXTT8=
EXTT9=
EXTT10=
EXTT11=
EXTT12=
EXTT13=
EXTT14=
EXTT15=
EXTT16=
EXTT17=
PLAYORDER=
